<svg width="35" height="35" viewBox="0 0 35 35" fill="none" xmlns="http://www.w3.org/2000/svg">
<path fill-rule="evenodd" clip-rule="evenodd" d="M0 17.5C0 7.83501 7.83501 0 17.5 0C27.165 0 35 7.83501 35 17.5C35 27.165 27.165 35 17.5 35C7.83501 35 0 27.165 0 17.5ZM13.965 12.1967C13.4767 11.7085 12.6854 11.7085 12.1971 12.1967C11.709 12.6849 11.709 13.4764 12.1971 13.9645L15.7327 17.5L12.1971 21.0355C11.709 21.5237 11.709 22.3151 12.1971 22.8034C12.6854 23.2915 13.4767 23.2915 13.965 22.8034L17.5005 19.2677L21.036 22.8034C21.5241 23.2915 22.3156 23.2915 22.8038 22.8034C23.2919 22.3151 23.2919 21.5237 22.8038 21.0355L19.2683 17.5L22.8038 13.9645C23.292 13.4764 23.292 12.6849 22.8038 12.1967C22.3156 11.7085 21.5241 11.7085 21.036 12.1967L17.5005 15.7323L13.965 12.1967Z" fill="#FF7A00"/>
</svg>
