<svg width="26" height="26" viewBox="0 0 26 26" fill="none" xmlns="http://www.w3.org/2000/svg">
<circle cx="13" cy="13" r="10" fill="white"/>
<path d="M12.9997 0C5.82024 0 0 5.82042 0 12.9999C0 20.1791 5.82024 26 12.9997 26C20.1791 26 25.9998 20.1791 25.9998 12.9999C25.9998 5.82042 20.1791 0 12.9997 0ZM13 4.56617L20.6928 9.36321H5.30709L13 4.56617ZM20.7887 17.0235H20.7879C20.7879 17.7929 20.1643 18.4164 19.395 18.4164H6.60493C5.8355 18.4164 5.21201 17.7928 5.21201 17.0235V9.66846C5.21201 9.58708 5.22033 9.50795 5.23385 9.43021L12.584 14.0134C12.593 14.0191 12.6026 14.0229 12.6119 14.0281C12.6216 14.0335 12.6314 14.0387 12.6413 14.0436C12.6932 14.0704 12.7467 14.092 12.8014 14.1061C12.807 14.1077 12.8127 14.1083 12.8183 14.1096C12.8783 14.1238 12.939 14.1326 12.9997 14.1326H13.0001C13.0006 14.1326 13.001 14.1326 13.001 14.1326C13.0617 14.1326 13.1224 14.124 13.1824 14.1096C13.188 14.1083 13.1937 14.1077 13.1993 14.1061C13.2539 14.092 13.3072 14.0704 13.3594 14.0436C13.3692 14.0387 13.3791 14.0335 13.3888 14.0281C13.398 14.0229 13.4077 14.0191 13.4167 14.0134L20.7668 9.43021C20.7804 9.50795 20.7887 9.5869 20.7887 9.66846V17.0235Z" fill="#FF7A00"/>
</svg>
