<svg width="30" height="30" viewBox="0 0 30 30" fill="none" xmlns="http://www.w3.org/2000/svg">
<circle cx="15" cy="15" r="15" fill="white"/>
<path fill-rule="evenodd" clip-rule="evenodd" d="M21.5232 8.47035C20.7374 7.68412 19.8038 7.0611 18.7762 6.63714C17.7486 6.21318 16.6473 5.99666 15.5357 6.00004C10.8705 6.00004 7.07286 9.77874 7.07096 14.4241C7.0689 15.9033 7.45881 17.3567 8.201 18.6362L7 23L11.4872 21.8286C12.7292 22.5015 14.1196 22.8536 15.5322 22.8531H15.5357C20.2004 22.8531 23.9977 19.0741 24 14.4291C24.0028 13.3212 23.7853 12.2239 23.3601 11.2009C22.9349 10.178 22.3105 9.24976 21.5232 8.47035ZM15.5357 21.4313H15.5326C14.2733 21.4317 13.0369 21.0947 11.952 20.4553L11.6951 20.3035L9.03241 20.9987L9.74314 18.4149L9.5758 18.1493C8.87166 17.0345 8.4986 15.7427 8.50002 14.4241C8.50002 10.5638 11.6575 7.42303 15.5383 7.42303C17.4 7.4197 19.1867 8.15597 20.5055 9.4699C21.8244 10.7838 22.5673 12.5678 22.5709 14.4294C22.5694 18.2901 19.4134 21.4313 15.5357 21.4313ZM19.3944 16.1875C19.1831 16.082 18.1422 15.5728 17.9494 15.5026C17.7567 15.4324 17.6144 15.3971 17.4736 15.6081C17.3328 15.819 16.9271 16.2911 16.8038 16.4334C16.6805 16.5757 16.5572 16.5912 16.3458 16.4858C16.1345 16.3803 15.4526 16.1583 14.6447 15.4411C14.0159 14.8829 13.5917 14.1938 13.4683 13.9832C13.345 13.7726 13.4551 13.6584 13.5609 13.5536C13.6562 13.4592 13.7723 13.3077 13.8782 13.1848C13.984 13.0619 14.0193 12.9738 14.0895 12.8334C14.1597 12.693 14.1248 12.5701 14.0721 12.465C14.0193 12.3598 13.5962 11.3235 13.4201 10.9019C13.2482 10.4914 13.0741 10.5471 12.9443 10.5407C12.821 10.5346 12.6787 10.5331 12.5387 10.5331C12.4316 10.5359 12.3263 10.5607 12.2293 10.606C12.1323 10.6513 12.0456 10.7162 11.9748 10.7965C11.7809 11.0074 11.2344 11.5174 11.2344 12.5526C11.2344 13.5878 11.9934 14.5896 12.0981 14.73C12.2028 14.8704 13.5894 16.9965 15.711 17.9084C16.1049 18.0771 16.5075 18.225 16.9169 18.3516C17.4235 18.5117 17.8845 18.4893 18.2488 18.4351C18.6552 18.3747 19.5011 17.9258 19.6767 17.434C19.8524 16.9422 19.8528 16.521 19.8001 16.4334C19.7473 16.3457 19.6062 16.2926 19.3944 16.1875Z" fill="#4B4B4B"/>
</svg>
