<svg width="30" height="30" viewBox="0 0 30 30" fill="none" xmlns="http://www.w3.org/2000/svg">
<circle cx="15" cy="15" r="15" fill="white"/>
<path d="M18.9418 14.254C18.9552 12.6903 17.6234 11.2569 15.9731 11.0587C15.9403 11.0548 15.9046 11.0489 15.8667 11.0426C15.785 11.0291 15.7005 11.0151 15.6153 11.0151C15.277 11.0151 15.1866 11.2527 15.1628 11.3944C15.1397 11.5322 15.1618 11.6479 15.2283 11.7384C15.3403 11.8907 15.5374 11.9178 15.6957 11.9394C15.7421 11.9459 15.7859 11.9518 15.8225 11.96C17.3052 12.2913 17.8045 12.8122 18.0485 14.2823C18.0544 14.3182 18.0571 14.3625 18.06 14.4095C18.0706 14.5852 18.0928 14.9508 18.4859 14.9508H18.4859C18.5186 14.9508 18.5538 14.948 18.5904 14.9424C18.9564 14.8868 18.945 14.5526 18.9395 14.392C18.9379 14.3468 18.9364 14.304 18.9402 14.2755C18.9413 14.2684 18.9418 14.2612 18.9418 14.254Z" fill="#4B4B4B"/>
<path d="M15.5194 10.4849C15.5634 10.488 15.6049 10.4911 15.6395 10.4964C18.0743 10.8708 19.194 12.0244 19.5043 14.4781C19.5095 14.5199 19.5104 14.5707 19.5112 14.6246C19.5143 14.8163 19.5207 15.2151 19.949 15.2234L19.9623 15.2235C20.0966 15.2235 20.2035 15.183 20.2799 15.103C20.4132 14.9636 20.4039 14.7564 20.3964 14.5899C20.3946 14.5491 20.3928 14.5106 20.3933 14.4769C20.4242 11.9673 18.2519 9.69165 15.7446 9.60702C15.7342 9.60668 15.7243 9.60723 15.7142 9.60864C15.7093 9.60936 15.7002 9.61026 15.6846 9.61026C15.6596 9.61026 15.6288 9.60809 15.5962 9.60588C15.5567 9.6032 15.512 9.6001 15.4667 9.6001C15.0674 9.6001 14.9915 9.88391 14.9818 10.0531C14.9594 10.4441 15.3377 10.4716 15.5194 10.4849Z" fill="#4B4B4B"/>
<path d="M19.3866 17.6493C19.3349 17.6098 19.2813 17.5688 19.2312 17.5285C18.9654 17.3146 18.6826 17.1174 18.4091 16.9267C18.3523 16.8871 18.2955 16.8475 18.239 16.8079C17.8886 16.5618 17.5737 16.4422 17.2761 16.4422C16.8753 16.4422 16.5258 16.6637 16.2374 17.1004C16.1096 17.294 15.9546 17.3881 15.7635 17.3881C15.6505 17.3881 15.5222 17.3559 15.382 17.2922C14.2512 16.7794 13.4436 15.9932 12.9819 14.9553C12.7586 14.4537 12.831 14.1258 13.2239 13.8589C13.4469 13.7075 13.8622 13.4256 13.8328 12.8858C13.7995 12.2728 12.447 10.4285 11.8771 10.219C11.6358 10.1302 11.3823 10.1294 11.1223 10.2169C10.4672 10.4371 9.99707 10.8239 9.76265 11.3353C9.53612 11.8295 9.54635 12.4097 9.79224 13.0133C10.5031 14.7583 11.5025 16.2798 12.7628 17.5354C13.9964 18.7644 15.5126 19.7712 17.2692 20.5276C17.4276 20.5957 17.5937 20.6329 17.7149 20.66C17.7563 20.6693 17.792 20.6772 17.818 20.6843C17.8322 20.6882 17.847 20.6903 17.8618 20.6905L17.8756 20.6905C17.8757 20.6905 17.8756 20.6905 17.8757 20.6905C18.7019 20.6905 19.694 19.9356 19.9987 19.0748C20.2656 18.3211 19.7782 17.9486 19.3866 17.6493Z" fill="#4B4B4B"/>
<path d="M15.8846 12.4783C15.7432 12.4819 15.4488 12.4892 15.3455 12.789C15.2972 12.9292 15.303 13.0508 15.3627 13.1506C15.4504 13.2971 15.6184 13.3419 15.7712 13.3666C16.3255 13.4555 16.6101 13.762 16.667 14.331C16.6935 14.5963 16.8721 14.7816 17.1015 14.7816H17.1016C17.1185 14.7816 17.1358 14.7806 17.1531 14.7785C17.429 14.7456 17.5627 14.5429 17.5506 14.1761C17.555 13.7932 17.3546 13.3584 17.0138 13.0122C16.6719 12.6649 16.2596 12.4693 15.8846 12.4783Z" fill="#4B4B4B"/>
<rect x="6.85" y="6.85" width="16.3" height="16.3" rx="5.15" stroke="#4B4B4B" stroke-width="1.7"/>
</svg>
