<svg width="30" height="30" viewBox="0 0 30 30" fill="none" xmlns="http://www.w3.org/2000/svg">
<circle cx="15" cy="15" r="12" fill="#4B4B4B"/>
<path d="M17.0637 12.9373C16.5167 12.3903 15.7747 12.083 15.0011 12.083C14.2274 12.083 13.4855 12.3903 12.9384 12.9373C12.3914 13.4844 12.0841 14.2264 12.0841 15C12.0841 15.7736 12.3914 16.5156 12.9384 17.0627C13.4855 17.6097 14.2274 17.917 15.0011 17.917C15.7747 17.917 16.5167 17.6097 17.0637 17.0627C17.6108 16.5156 17.9181 15.7736 17.9181 15C17.9181 14.2264 17.6108 13.4844 17.0637 12.9373Z" fill="white"/>
<path fill-rule="evenodd" clip-rule="evenodd" d="M15.0011 7.82719H14.2158V7.825C12.585 7.82609 12.2722 7.83703 11.465 7.87422C10.6119 7.91359 10.1492 8.05578 9.84078 8.17609C9.43172 8.33469 9.14078 8.52391 8.83453 8.83016C8.52828 9.13641 8.33797 9.42844 8.17937 9.83641C8.05906 10.1448 7.91687 10.6086 7.8775 11.4617C7.83594 12.3837 7.82719 12.6594 7.82719 14.9956C7.82719 17.333 7.83594 17.6097 7.8775 18.5317C7.91578 19.3848 8.05906 19.8486 8.17828 20.1559C8.31907 20.5362 8.54332 20.88 8.83453 21.1622C9.11686 21.4527 9.4607 21.6762 9.84078 21.8163C10.1492 21.9366 10.6119 22.0788 11.465 22.1181C12.387 22.1597 12.6648 22.1695 15.0011 22.1695C17.3373 22.1695 17.6141 22.1597 18.5361 22.1181C19.3903 22.0788 19.8541 21.9366 20.1603 21.8163C20.5694 21.6577 20.8603 21.4684 21.1666 21.1622C21.4575 20.8805 21.6814 20.537 21.8217 20.157C21.9409 19.8486 22.0842 19.3859 22.1225 18.5328C22.1652 17.6108 22.1739 17.333 22.1739 14.9978C22.1739 12.6627 22.1652 12.3859 22.1225 11.4639C22.0842 10.6108 21.942 10.147 21.8217 9.83969C21.6631 9.43062 21.4739 9.13969 21.1677 8.83344C20.8614 8.52719 20.5694 8.33687 20.1614 8.17828C19.853 8.05906 19.3892 7.91578 18.5361 7.8775C17.6141 7.83484 17.3373 7.82719 15.0011 7.82719ZM19.2696 9.35961C19.397 9.30685 19.5335 9.27969 19.6714 9.27969C19.9499 9.27969 20.217 9.39031 20.4139 9.58723C20.6108 9.78414 20.7214 10.0512 20.7214 10.3297C20.7214 10.6082 20.6108 10.8752 20.4139 11.0721C20.217 11.2691 19.9499 11.3797 19.6714 11.3797C19.5335 11.3797 19.397 11.3525 19.2696 11.2998C19.1422 11.247 19.0264 11.1697 18.9289 11.0721C18.8314 10.9746 18.7541 10.8589 18.7013 10.7315C18.6486 10.6041 18.6214 10.4676 18.6214 10.3297C18.6214 10.1918 18.6486 10.0553 18.7013 9.92787C18.7541 9.80048 18.8314 9.68473 18.9289 9.58723C19.0264 9.48972 19.1422 9.41238 19.2696 9.35961ZM13.2598 10.8286C13.8132 10.6069 14.4051 10.4976 15.0011 10.5069C16.1807 10.5253 17.3059 11.0068 18.1336 11.8475C18.9613 12.6883 19.4252 13.8207 19.4252 15.0005C19.4252 16.1803 18.9613 17.3128 18.1336 18.1536C17.3059 18.9943 16.1807 19.4758 15.0011 19.4942C14.4051 19.5035 13.8132 19.3942 13.2598 19.1725C12.7065 18.9508 12.2028 18.6213 11.778 18.2031C11.3532 17.7849 11.0159 17.2864 10.7856 16.7366C10.5553 16.1868 10.4368 15.5966 10.4368 15.0005C10.4368 14.4045 10.5553 13.8143 10.7856 13.2645C11.0159 12.7147 11.3532 12.2162 11.778 11.798C12.2028 11.3798 12.7065 11.0502 13.2598 10.8286Z" fill="white"/>
<path fill-rule="evenodd" clip-rule="evenodd" d="M15 30C23.2843 30 30 23.2843 30 15C30 6.71573 23.2843 0 15 0C6.71573 0 0 6.71573 0 15C0 23.2843 6.71573 30 15 30ZM11.3939 6.3025C12.3269 6.26094 12.6255 6.25 15 6.25H14.9978C17.3756 6.25 17.672 6.26094 18.6061 6.3025C19.5369 6.34516 20.1734 6.49281 20.7312 6.70937C21.3153 6.92883 21.8443 7.2734 22.2811 7.71891C22.7262 8.15605 23.0707 8.68493 23.2906 9.26875C23.5061 9.82437 23.6538 10.4609 23.6975 11.3917C23.7391 12.3258 23.75 12.6233 23.75 15C23.75 17.3767 23.7391 17.6742 23.6975 18.6072C23.6538 19.5391 23.5061 20.1745 23.2906 20.7312C23.0664 21.3066 22.7678 21.7944 22.2811 22.2811C21.8445 22.7263 21.3159 23.0709 20.7323 23.2906C20.1756 23.5072 19.538 23.6538 18.6072 23.6975C17.6731 23.7391 17.3767 23.75 15 23.75C12.6233 23.75 12.3258 23.7391 11.3917 23.6975C10.4598 23.6548 9.82547 23.5072 9.26766 23.2906C8.69234 23.0675 8.20453 22.7678 7.71891 22.2811C7.23219 21.7944 6.93359 21.3066 6.70937 20.7312C6.49281 20.1745 6.34625 19.5391 6.3025 18.6072C6.26094 17.6742 6.25 17.3767 6.25 15.0011C6.25 12.6233 6.26094 12.3258 6.3025 11.3906C6.34516 10.4609 6.49281 9.82437 6.70937 9.26875C6.92934 8.68495 7.27383 8.15607 7.71891 7.71891C8.15585 7.27356 8.68479 6.92902 9.26875 6.70937C9.82547 6.49281 10.4609 6.34625 11.3939 6.3025Z" fill="white"/>
</svg>
