<svg width="142" height="142" viewBox="0 0 142 142" fill="none" xmlns="http://www.w3.org/2000/svg">
<circle cx="71" cy="70.7107" r="50" transform="rotate(45 71 70.7107)" fill="#FF9C40"/>
<path d="M35.6447 106.066C45.0215 115.443 57.7392 120.711 71 120.711C84.2608 120.711 96.9785 115.443 106.355 106.066C115.732 96.6892 121 83.9715 121 70.7107C121 57.4499 115.732 44.7322 106.355 35.3554L71 70.7107L35.6447 106.066Z" fill="#FF8B20"/>
<path d="M54.4361 88.2867C51.6521 88.2867 49.1721 87.5987 46.9961 86.2227C44.8201 84.8467 43.1081 82.8627 41.8601 80.2707C40.6441 77.6467 40.0361 74.5267 40.0361 70.9107C40.0361 67.2947 40.6441 64.1907 41.8601 61.5987C43.1081 58.9747 44.8201 56.9747 46.9961 55.5987C49.1721 54.2227 51.6521 53.5347 54.4361 53.5347C57.2201 53.5347 59.7001 54.2227 61.8761 55.5987C64.0521 56.9747 65.7481 58.9747 66.9641 61.5987C68.2121 64.1907 68.8361 67.2947 68.8361 70.9107C68.8361 74.5267 68.2121 77.6467 66.9641 80.2707C65.7481 82.8627 64.0521 84.8467 61.8761 86.2227C59.7001 87.5987 57.2201 88.2867 54.4361 88.2867ZM54.4361 81.7107C56.4841 81.7107 58.0841 80.8307 59.2361 79.0707C60.4201 77.3107 61.0121 74.5907 61.0121 70.9107C61.0121 67.2307 60.4201 64.5107 59.2361 62.7507C58.0841 60.9907 56.4841 60.1107 54.4361 60.1107C52.4201 60.1107 50.8201 60.9907 49.6361 62.7507C48.4841 64.5107 47.9081 67.2307 47.9081 70.9107C47.9081 74.5907 48.4841 77.3107 49.6361 79.0707C50.8201 80.8307 52.4201 81.7107 54.4361 81.7107ZM103.382 80.6547H97.9102V87.7107H90.3262V80.6547H72.2302V75.4227L88.0702 54.1107H96.2302L81.5422 74.3187H90.5662V68.0307H97.9102V74.3187H103.382V80.6547Z" fill="white"/>
</svg>
