<svg width="193" height="25" viewBox="0 0 193 25" fill="none" xmlns="http://www.w3.org/2000/svg">
<path d="M14.949 23.373C13.827 24.011 12.298 24.33 10.362 24.33C7.832 24.33 5.885 23.725 4.521 22.515C3.157 21.283 2.475 19.446 2.475 17.004V12.384H0V6.939H2.475V1.89H9.933V6.939H13.629V12.384H9.933V16.938C9.933 17.488 10.076 17.917 10.362 18.225C10.648 18.533 11.022 18.687 11.484 18.687C12.122 18.687 12.683 18.522 13.167 18.192L14.949 23.373ZM25.8823 24.33C23.8803 24.33 22.0763 23.934 20.4703 23.142C18.8863 22.328 17.6433 21.217 16.7413 19.809C15.8393 18.379 15.3883 16.762 15.3883 14.958C15.3883 13.154 15.8393 11.548 16.7413 10.14C17.6433 8.71 18.8863 7.599 20.4703 6.807C22.0763 6.015 23.8803 5.619 25.8823 5.619C27.9063 5.619 29.7103 6.015 31.2943 6.807C32.9003 7.599 34.1433 8.71 35.0233 10.14C35.9253 11.548 36.3763 13.154 36.3763 14.958C36.3763 16.762 35.9253 18.379 35.0233 19.809C34.1433 21.217 32.9003 22.328 31.2943 23.142C29.7103 23.934 27.9063 24.33 25.8823 24.33ZM25.8823 18.522C26.7403 18.522 27.4443 18.214 27.9943 17.598C28.5443 16.96 28.8193 16.08 28.8193 14.958C28.8193 13.836 28.5443 12.967 27.9943 12.351C27.4443 11.735 26.7403 11.427 25.8823 11.427C25.0243 11.427 24.3203 11.735 23.7703 12.351C23.2203 12.967 22.9453 13.836 22.9453 14.958C22.9453 16.08 23.2203 16.96 23.7703 17.598C24.3203 18.214 25.0243 18.522 25.8823 18.522ZM51.2505 5.619C53.4725 5.619 55.2545 6.29 56.5965 7.632C57.9605 8.974 58.6425 10.998 58.6425 13.704V24H51.1845V14.991C51.1845 12.923 50.4475 11.889 48.9735 11.889C48.1375 11.889 47.4555 12.186 46.9275 12.78C46.4215 13.352 46.1685 14.265 46.1685 15.519V24H38.7105V5.949H45.8055V7.731C46.5095 7.027 47.3235 6.499 48.2475 6.147C49.1715 5.795 50.1725 5.619 51.2505 5.619ZM74.4214 5.619C76.6434 5.619 78.4254 6.29 79.7674 7.632C81.1314 8.974 81.8134 10.998 81.8134 13.704V24H74.3554V14.991C74.3554 12.923 73.6184 11.889 72.1444 11.889C71.3084 11.889 70.6264 12.186 70.0984 12.78C69.5924 13.352 69.3394 14.265 69.3394 15.519V24H61.8814V5.949H68.9764V7.731C69.6804 7.027 70.4944 6.499 71.4184 6.147C72.3424 5.795 73.3434 5.619 74.4214 5.619ZM93.1373 5.619C96.3053 5.619 98.7253 6.334 100.397 7.764C102.069 9.172 102.905 11.35 102.905 14.298V24H95.9753V21.624C95.1173 23.428 93.4123 24.33 90.8603 24.33C89.4303 24.33 88.2093 24.088 87.1973 23.604C86.2073 23.098 85.4483 22.427 84.9203 21.591C84.4143 20.733 84.1613 19.776 84.1613 18.72C84.1613 16.938 84.8433 15.585 86.2073 14.661C87.5713 13.737 89.6393 13.275 92.4113 13.275H95.4143C95.1723 11.867 94.0393 11.163 92.0153 11.163C91.2013 11.163 90.3763 11.295 89.5403 11.559C88.7043 11.801 87.9893 12.142 87.3953 12.582L85.0193 7.665C86.0533 7.027 87.2963 6.532 88.7483 6.18C90.2223 5.806 91.6853 5.619 93.1373 5.619ZM93.1043 19.842C93.6323 19.842 94.1053 19.699 94.5233 19.413C94.9413 19.127 95.2493 18.698 95.4473 18.126V16.872H93.5993C92.0813 16.872 91.3223 17.378 91.3223 18.39C91.3223 18.808 91.4763 19.16 91.7843 19.446C92.1143 19.71 92.5543 19.842 93.1043 19.842Z" fill="white"/>
<path d="M118.405 10.041C120.187 10.481 121.551 11.284 122.497 12.45C123.465 13.594 123.949 14.98 123.949 16.608C123.949 17.994 123.564 19.292 122.794 20.502C122.046 21.69 120.88 22.658 119.296 23.406C117.712 24.154 115.743 24.528 113.389 24.528C111.761 24.528 110.133 24.352 108.505 24C106.899 23.648 105.491 23.131 104.281 22.449L106.921 16.707C107.867 17.257 108.879 17.675 109.957 17.961C111.057 18.247 112.113 18.39 113.125 18.39C114.027 18.39 114.753 18.236 115.303 17.928C115.853 17.62 116.128 17.18 116.128 16.608C116.128 15.552 115.215 15.024 113.389 15.024H110.32V10.239L113.719 6.774H105.469V0.899998H122.695V5.685L118.405 10.041ZM134.517 0.371999C136.739 0.371999 138.675 0.800999 140.325 1.659C141.997 2.517 143.295 3.793 144.219 5.487C145.143 7.181 145.605 9.26 145.605 11.724C145.605 14.364 145.066 16.652 143.988 18.588C142.932 20.524 141.436 21.998 139.5 23.01C137.586 24.022 135.353 24.528 132.801 24.528C131.415 24.528 130.095 24.363 128.841 24.033C127.587 23.725 126.52 23.285 125.64 22.713L128.445 17.268C129.589 18.082 130.986 18.489 132.636 18.489C133.978 18.489 135.078 18.159 135.936 17.499C136.816 16.817 137.388 15.838 137.652 14.562C136.442 15.42 134.913 15.849 133.065 15.849C131.657 15.849 130.348 15.541 129.138 14.925C127.928 14.309 126.96 13.44 126.234 12.318C125.508 11.196 125.145 9.909 125.145 8.457C125.145 6.851 125.552 5.432 126.366 4.2C127.202 2.968 128.335 2.022 129.765 1.362C131.195 0.701999 132.779 0.371999 134.517 0.371999ZM135.045 10.47C135.749 10.47 136.321 10.261 136.761 9.843C137.201 9.403 137.421 8.82 137.421 8.094C137.421 7.368 137.201 6.796 136.761 6.378C136.321 5.96 135.749 5.751 135.045 5.751C134.341 5.751 133.769 5.96 133.329 6.378C132.889 6.796 132.669 7.368 132.669 8.094C132.669 8.82 132.889 9.403 133.329 9.843C133.769 10.261 134.341 10.47 135.045 10.47ZM151.099 24.33C149.845 24.33 148.8 23.934 147.964 23.142C147.15 22.328 146.743 21.294 146.743 20.04C146.743 18.786 147.15 17.774 147.964 17.004C148.8 16.212 149.845 15.816 151.099 15.816C152.353 15.816 153.387 16.212 154.201 17.004C155.037 17.774 155.455 18.786 155.455 20.04C155.455 21.294 155.037 22.328 154.201 23.142C153.387 23.934 152.353 24.33 151.099 24.33ZM164.85 7.896C166.17 6.378 168.117 5.619 170.691 5.619V12.219C170.097 12.131 169.547 12.087 169.041 12.087C166.489 12.087 165.213 13.385 165.213 15.981V24H157.755V5.949H164.85V7.896ZM192.539 5.949V24H185.444V22.284C184.784 22.966 184.014 23.483 183.134 23.835C182.254 24.165 181.319 24.33 180.329 24.33C178.041 24.33 176.204 23.637 174.818 22.251C173.432 20.843 172.739 18.731 172.739 15.915V5.949H180.197V14.628C180.197 15.86 180.395 16.74 180.791 17.268C181.187 17.796 181.77 18.06 182.54 18.06C183.266 18.06 183.871 17.774 184.355 17.202C184.839 16.608 185.081 15.684 185.081 14.43V5.949H192.539Z" fill="#FF7A00"/>
</svg>
