<svg width="106" height="14" viewBox="0 0 106 14" fill="none" xmlns="http://www.w3.org/2000/svg">
<path d="M8.154 12.658C7.542 13.006 6.708 13.18 5.652 13.18C4.272 13.18 3.21 12.85 2.466 12.19C1.722 11.518 1.35 10.516 1.35 9.184V6.664H0V3.694H1.35V0.94H5.418V3.694H7.434V6.664H5.418V9.148C5.418 9.448 5.496 9.682 5.652 9.85C5.808 10.018 6.012 10.102 6.264 10.102C6.612 10.102 6.918 10.012 7.182 9.832L8.154 12.658ZM14.1176 13.18C13.0256 13.18 12.0416 12.964 11.1656 12.532C10.3016 12.088 9.62363 11.482 9.13163 10.714C8.63963 9.934 8.39363 9.052 8.39363 8.068C8.39363 7.084 8.63963 6.208 9.13163 5.44C9.62363 4.66 10.3016 4.054 11.1656 3.622C12.0416 3.19 13.0256 2.974 14.1176 2.974C15.2216 2.974 16.2056 3.19 17.0696 3.622C17.9456 4.054 18.6236 4.66 19.1036 5.44C19.5956 6.208 19.8416 7.084 19.8416 8.068C19.8416 9.052 19.5956 9.934 19.1036 10.714C18.6236 11.482 17.9456 12.088 17.0696 12.532C16.2056 12.964 15.2216 13.18 14.1176 13.18ZM14.1176 10.012C14.5856 10.012 14.9696 9.844 15.2696 9.508C15.5696 9.16 15.7196 8.68 15.7196 8.068C15.7196 7.456 15.5696 6.982 15.2696 6.646C14.9696 6.31 14.5856 6.142 14.1176 6.142C13.6496 6.142 13.2656 6.31 12.9656 6.646C12.6656 6.982 12.5156 7.456 12.5156 8.068C12.5156 8.68 12.6656 9.16 12.9656 9.508C13.2656 9.844 13.6496 10.012 14.1176 10.012ZM27.9548 2.974C29.1668 2.974 30.1388 3.34 30.8708 4.072C31.6148 4.804 31.9868 5.908 31.9868 7.384V13H27.9188V8.086C27.9188 6.958 27.5168 6.394 26.7128 6.394C26.2568 6.394 25.8848 6.556 25.5968 6.88C25.3208 7.192 25.1828 7.69 25.1828 8.374V13H21.1148V3.154H24.9848V4.126C25.3688 3.742 25.8128 3.454 26.3168 3.262C26.8208 3.07 27.3668 2.974 27.9548 2.974ZM40.5935 2.974C41.8055 2.974 42.7775 3.34 43.5095 4.072C44.2535 4.804 44.6255 5.908 44.6255 7.384V13H40.5575V8.086C40.5575 6.958 40.1555 6.394 39.3515 6.394C38.8955 6.394 38.5235 6.556 38.2355 6.88C37.9595 7.192 37.8215 7.69 37.8215 8.374V13H33.7535V3.154H37.6235V4.126C38.0075 3.742 38.4515 3.454 38.9555 3.262C39.4595 3.07 40.0055 2.974 40.5935 2.974ZM50.8022 2.974C52.5302 2.974 53.8502 3.364 54.7622 4.144C55.6742 4.912 56.1302 6.1 56.1302 7.708V13H52.3502V11.704C51.8822 12.688 50.9522 13.18 49.5602 13.18C48.7802 13.18 48.1142 13.048 47.5622 12.784C47.0222 12.508 46.6082 12.142 46.3202 11.686C46.0442 11.218 45.9062 10.696 45.9062 10.12C45.9062 9.148 46.2782 8.41 47.0222 7.906C47.7662 7.402 48.8942 7.15 50.4062 7.15H52.0442C51.9122 6.382 51.2942 5.998 50.1902 5.998C49.7462 5.998 49.2962 6.07 48.8402 6.214C48.3842 6.346 47.9942 6.532 47.6702 6.772L46.3742 4.09C46.9382 3.742 47.6162 3.472 48.4082 3.28C49.2122 3.076 50.0102 2.974 50.8022 2.974ZM50.7842 10.732C51.0722 10.732 51.3302 10.654 51.5582 10.498C51.7862 10.342 51.9542 10.108 52.0622 9.796V9.112H51.0542C50.2262 9.112 49.8122 9.388 49.8122 9.94C49.8122 10.168 49.8962 10.36 50.0642 10.516C50.2442 10.66 50.4842 10.732 50.7842 10.732Z" fill="#242D39"/>
<path d="M64.5843 5.386C65.5563 5.626 66.3003 6.064 66.8163 6.7C67.3443 7.324 67.6083 8.08 67.6083 8.968C67.6083 9.724 67.3983 10.432 66.9783 11.092C66.5703 11.74 65.9343 12.268 65.0703 12.676C64.2063 13.084 63.1323 13.288 61.8483 13.288C60.9603 13.288 60.0723 13.192 59.1843 13C58.3083 12.808 57.5403 12.526 56.8803 12.154L58.3203 9.022C58.8363 9.322 59.3883 9.55 59.9763 9.706C60.5763 9.862 61.1523 9.94 61.7043 9.94C62.1963 9.94 62.5923 9.856 62.8923 9.688C63.1923 9.52 63.3423 9.28 63.3423 8.968C63.3423 8.392 62.8443 8.104 61.8483 8.104H60.1743V5.494L62.0283 3.604H57.5283V0.399999H66.9243V3.01L64.5843 5.386ZM73.3729 0.112C74.5849 0.112 75.6409 0.345999 76.5409 0.813999C77.4529 1.282 78.1609 1.978 78.6649 2.902C79.1689 3.826 79.4209 4.96 79.4209 6.304C79.4209 7.744 79.1269 8.992 78.5389 10.048C77.9629 11.104 77.1469 11.908 76.0909 12.46C75.0469 13.012 73.8289 13.288 72.4369 13.288C71.6809 13.288 70.9609 13.198 70.2769 13.018C69.5929 12.85 69.0109 12.61 68.5309 12.298L70.0609 9.328C70.6849 9.772 71.4469 9.994 72.3469 9.994C73.0789 9.994 73.6789 9.814 74.1469 9.454C74.6269 9.082 74.9389 8.548 75.0829 7.852C74.4229 8.32 73.5889 8.554 72.5809 8.554C71.8129 8.554 71.0989 8.386 70.4389 8.05C69.7789 7.714 69.2509 7.24 68.8549 6.628C68.4589 6.016 68.2609 5.314 68.2609 4.522C68.2609 3.646 68.4829 2.872 68.9269 2.2C69.3829 1.528 70.0009 1.012 70.7809 0.651999C71.5609 0.291999 72.4249 0.112 73.3729 0.112ZM73.6609 5.62C74.0449 5.62 74.3569 5.506 74.5969 5.278C74.8369 5.038 74.9569 4.72 74.9569 4.324C74.9569 3.928 74.8369 3.616 74.5969 3.388C74.3569 3.16 74.0449 3.046 73.6609 3.046C73.2769 3.046 72.9649 3.16 72.7249 3.388C72.4849 3.616 72.3649 3.928 72.3649 4.324C72.3649 4.72 72.4849 5.038 72.7249 5.278C72.9649 5.506 73.2769 5.62 73.6609 5.62ZM82.4176 13.18C81.7336 13.18 81.1636 12.964 80.7076 12.532C80.2636 12.088 80.0416 11.524 80.0416 10.84C80.0416 10.156 80.2636 9.604 80.7076 9.184C81.1636 8.752 81.7336 8.536 82.4176 8.536C83.1016 8.536 83.6656 8.752 84.1096 9.184C84.5656 9.604 84.7936 10.156 84.7936 10.84C84.7936 11.524 84.5656 12.088 84.1096 12.532C83.6656 12.964 83.1016 13.18 82.4176 13.18ZM89.9184 4.216C90.6384 3.388 91.7004 2.974 93.1044 2.974V6.574C92.7804 6.526 92.4804 6.502 92.2044 6.502C90.8124 6.502 90.1164 7.21 90.1164 8.626V13H86.0484V3.154H89.9184V4.216ZM105.021 3.154V13H101.151V12.064C100.791 12.436 100.371 12.718 99.8914 12.91C99.4114 13.09 98.9014 13.18 98.3614 13.18C97.1134 13.18 96.1114 12.802 95.3554 12.046C94.5994 11.278 94.2214 10.126 94.2214 8.59V3.154H98.2894V7.888C98.2894 8.56 98.3974 9.04 98.6134 9.328C98.8294 9.616 99.1474 9.76 99.5674 9.76C99.9634 9.76 100.293 9.604 100.557 9.292C100.821 8.968 100.953 8.464 100.953 7.78V3.154H105.021Z" fill="#FF7A00"/>
</svg>
