<svg width="20" height="20" viewBox="0 0 20 20" fill="none" xmlns="http://www.w3.org/2000/svg">
<ellipse cx="10.4176" cy="9.585" rx="7.66667" ry="7.668" fill="#242D39"/>
<path d="M11.7358 8.26696C11.3863 7.9174 10.9123 7.72102 10.418 7.72102C9.92374 7.72102 9.44971 7.9174 9.10021 8.26696C8.75071 8.61653 8.55436 9.09064 8.55436 9.585C8.55436 10.0794 8.75071 10.5535 9.10021 10.903C9.44971 11.2526 9.92374 11.449 10.418 11.449C10.9123 11.449 11.3863 11.2526 11.7358 10.903C12.0853 10.5535 12.2817 10.0794 12.2817 9.585C12.2817 9.09064 12.0853 8.61653 11.7358 8.26696Z" fill="#E7E7E7"/>
<path fill-rule="evenodd" clip-rule="evenodd" d="M10.418 5.00157H9.91629V5.00017C8.8744 5.00087 8.67455 5.00786 8.15885 5.03163C7.61379 5.05679 7.31821 5.14764 7.12115 5.22452C6.8598 5.32587 6.67393 5.44678 6.47827 5.64247C6.28261 5.83816 6.16102 6.02477 6.0597 6.28546C5.98283 6.48256 5.89199 6.77889 5.86683 7.32404C5.84028 7.91322 5.83469 8.08934 5.83469 9.5822C5.83469 11.0758 5.84028 11.2526 5.86683 11.8418C5.89129 12.3869 5.98283 12.6833 6.059 12.8796C6.14895 13.1226 6.29222 13.3423 6.47827 13.5226C6.65864 13.7083 6.87832 13.8511 7.12115 13.9406C7.31821 14.0175 7.61379 14.1083 8.15885 14.1335C8.74792 14.16 8.92541 14.1663 10.418 14.1663C11.9106 14.1663 12.0874 14.16 12.6765 14.1335C13.2222 14.1083 13.5185 14.0175 13.7142 13.9406C13.9755 13.8392 14.1614 13.7183 14.3571 13.5226C14.543 13.3426 14.686 13.1231 14.7756 12.8803C14.8518 12.6833 14.9433 12.3876 14.9678 11.8425C14.9951 11.2533 15.0006 11.0758 15.0006 9.5836C15.0006 8.09144 14.9951 7.91461 14.9678 7.32544C14.9433 6.78029 14.8525 6.48395 14.7756 6.28756C14.6743 6.02617 14.5534 5.84026 14.3578 5.64457C14.1621 5.44887 13.9755 5.32726 13.7149 5.22592C13.5178 5.14974 13.2215 5.05818 12.6765 5.03372C12.0874 5.00647 11.9106 5.00157 10.418 5.00157ZM13.1451 5.98079C13.2265 5.94707 13.3137 5.92972 13.4018 5.92972C13.5797 5.92972 13.7504 6.00041 13.8762 6.12624C14.002 6.25206 14.0727 6.42272 14.0727 6.60067C14.0727 6.77862 14.002 6.94928 13.8762 7.0751C13.7504 7.20093 13.5797 7.27162 13.4018 7.27162C13.3137 7.27162 13.2265 7.25427 13.1451 7.22055C13.0637 7.18683 12.9898 7.13741 12.9275 7.0751C12.8652 7.0128 12.8158 6.93884 12.7821 6.85743C12.7483 6.77603 12.731 6.68878 12.731 6.60067C12.731 6.51256 12.7483 6.42531 12.7821 6.34391C12.8158 6.26251 12.8652 6.18854 12.9275 6.12624C12.9898 6.06393 13.0637 6.01451 13.1451 5.98079ZM9.30554 6.91947C9.65906 6.77783 10.0372 6.70795 10.418 6.71389C11.1717 6.72565 11.8905 7.03335 12.4193 7.57058C12.9481 8.1078 13.2445 8.83146 13.2445 9.58535C13.2445 10.3392 12.9481 11.0629 12.4193 11.6001C11.8905 12.1373 11.1717 12.445 10.418 12.4568C10.0372 12.4627 9.65906 12.3929 9.30554 12.2512C8.95201 12.1096 8.63019 11.899 8.3588 11.6318C8.08742 11.3646 7.8719 11.046 7.72479 10.6947C7.57768 10.3433 7.50192 9.96625 7.50192 9.58535C7.50192 9.20445 7.57768 8.82735 7.72479 8.47602C7.8719 8.12468 8.08742 7.80613 8.3588 7.5389C8.63019 7.27167 8.95201 7.06111 9.30554 6.91947Z" fill="#E7E7E7"/>
<path fill-rule="evenodd" clip-rule="evenodd" d="M10.4173 19.17C15.71 19.17 20.0007 14.8786 20.0007 9.585C20.0007 4.29135 15.71 0 10.4173 0C5.12459 0 0.833984 4.29135 0.833984 9.585C0.833984 14.8786 5.12459 19.17 10.4173 19.17ZM8.11342 4.0273C8.70949 4.00074 8.90026 3.99375 10.4173 3.99375H10.4159C11.9351 3.99375 12.1244 4.00074 12.7212 4.0273C13.3159 4.05455 13.7226 4.14891 14.0789 4.28729C14.4521 4.42752 14.7901 4.6477 15.0691 4.93238C15.3535 5.21172 15.5736 5.54967 15.7141 5.92273C15.8518 6.27778 15.9461 6.68454 15.9741 7.27931C16.0006 7.87617 16.0076 8.06628 16.0076 9.585C16.0076 11.1037 16.0006 11.2938 15.9741 11.89C15.9461 12.4855 15.8518 12.8915 15.7141 13.2473C15.5709 13.6149 15.3801 13.9266 15.0691 14.2376C14.7902 14.5221 14.4525 14.7423 14.0796 14.8827C13.724 15.0211 13.3166 15.1147 12.7219 15.1427C12.1251 15.1693 11.9358 15.1762 10.4173 15.1762C8.89886 15.1762 8.70879 15.1693 8.11203 15.1427C7.51666 15.1154 7.11137 15.0211 6.75499 14.8827C6.38743 14.7401 6.07577 14.5486 5.76551 14.2376C5.45455 13.9266 5.26378 13.6149 5.12053 13.2473C4.98217 12.8915 4.88853 12.4855 4.86058 11.89C4.83403 11.2938 4.82704 11.1037 4.82704 9.5857C4.82704 8.06628 4.83403 7.87617 4.86058 7.27861C4.88783 6.68454 4.98217 6.27778 5.12053 5.92273C5.26106 5.54968 5.48116 5.21173 5.76551 4.93238C6.04467 4.6478 6.3826 4.42764 6.75569 4.28729C7.11137 4.14891 7.51736 4.05525 8.11342 4.0273Z" fill="#E7E7E7"/>
</svg>
