<svg width="30" height="30" viewBox="0 0 30 30" fill="none" xmlns="http://www.w3.org/2000/svg">
<circle cx="15" cy="15" r="15" fill="white"/>
<path d="M18.942 14.254C18.9553 12.6904 17.6235 11.257 15.9733 11.0587C15.9404 11.0548 15.9047 11.0489 15.8668 11.0426C15.7851 11.0291 15.7006 11.0152 15.6154 11.0152C15.2772 11.0152 15.1867 11.2528 15.1629 11.3945C15.1398 11.5323 15.1619 11.6479 15.2285 11.7385C15.3405 11.8908 15.5376 11.9178 15.6959 11.9395C15.7422 11.9459 15.786 11.9519 15.8227 11.9601C17.3054 12.2914 17.8046 12.8123 18.0486 14.2824C18.0546 14.3183 18.0573 14.3626 18.0601 14.4095C18.0708 14.5852 18.0929 14.9509 18.486 14.9509H18.486C18.5188 14.9509 18.5539 14.948 18.5905 14.9424C18.9566 14.8868 18.9451 14.5526 18.9396 14.392C18.938 14.3468 18.9365 14.304 18.9404 14.2756C18.9414 14.2684 18.9419 14.2612 18.942 14.254Z" fill="#B78455"/>
<path d="M15.5196 10.4848C15.5635 10.4879 15.605 10.491 15.6397 10.4963C18.0744 10.8707 19.1941 12.0243 19.5044 14.4781C19.5097 14.5198 19.5105 14.5706 19.5114 14.6245C19.5145 14.8162 19.5208 15.215 19.9491 15.2233L19.9624 15.2234C20.0967 15.2234 20.2036 15.1829 20.28 15.1029C20.4133 14.9635 20.404 14.7563 20.3965 14.5898C20.3947 14.549 20.393 14.5105 20.3934 14.4768C20.4244 11.9672 18.2521 9.69156 15.7447 9.60693C15.7343 9.60658 15.7244 9.60714 15.7144 9.60855C15.7094 9.60927 15.7003 9.61017 15.6847 9.61017C15.6597 9.61017 15.6289 9.608 15.5963 9.60579C15.5569 9.60311 15.5122 9.60001 15.4668 9.60001C15.0675 9.60001 14.9916 9.88382 14.9819 10.053C14.9595 10.444 15.3378 10.4715 15.5196 10.4848Z" fill="#B78455"/>
<path d="M19.3867 17.6494C19.335 17.6099 19.2815 17.569 19.2313 17.5286C18.9655 17.3147 18.6827 17.1175 18.4092 16.9268C18.3524 16.8872 18.2957 16.8477 18.2391 16.808C17.8888 16.5619 17.5738 16.4423 17.2762 16.4423C16.8754 16.4423 16.5259 16.6638 16.2375 17.1005C16.1097 17.2941 15.9547 17.3882 15.7636 17.3882C15.6507 17.3882 15.5223 17.356 15.3821 17.2924C14.2513 16.7795 13.4438 15.9933 12.982 14.9554C12.7588 14.4538 12.8311 14.1259 13.224 13.859C13.4471 13.7076 13.8623 13.4257 13.8329 12.8859C13.7996 12.273 12.4471 10.4286 11.8772 10.2191C11.636 10.1304 11.3825 10.1295 11.1224 10.217C10.4673 10.4373 9.99719 10.824 9.76278 11.3354C9.53625 11.8296 9.54647 12.4098 9.79236 13.0134C10.5032 14.7585 11.5026 16.2799 12.7629 17.5355C13.9965 18.7646 15.5127 19.7713 17.2694 20.5277C17.4277 20.5958 17.5938 20.633 17.7151 20.6601C17.7564 20.6694 17.7921 20.6773 17.8181 20.6845C17.8324 20.6884 17.8471 20.6905 17.8619 20.6906L17.8758 20.6907C17.8758 20.6907 17.8758 20.6907 17.8758 20.6907C18.7021 20.6907 19.6941 19.9357 19.9988 19.075C20.2657 18.3213 19.7784 17.9487 19.3867 17.6494Z" fill="#B78455"/>
<path d="M15.8847 12.4782C15.7433 12.4818 15.4489 12.4891 15.3456 12.7889C15.2973 12.929 15.3031 13.0507 15.3628 13.1505C15.4505 13.2969 15.6185 13.3418 15.7714 13.3664C16.3256 13.4554 16.6102 13.7618 16.6672 14.3308C16.6936 14.5961 16.8723 14.7814 17.1016 14.7814H17.1017C17.1186 14.7814 17.136 14.7804 17.1532 14.7783C17.4291 14.7455 17.5628 14.5428 17.5507 14.1759C17.5552 13.793 17.3548 13.3583 17.014 13.012C16.672 12.6647 16.2597 12.4691 15.8847 12.4782Z" fill="#B78455"/>
<rect x="6.85" y="6.85" width="16.3" height="16.3" rx="5.15" stroke="#B78455" stroke-width="1.7"/>
</svg>
