<svg width="142" height="142" viewBox="0 0 142 142" fill="none" xmlns="http://www.w3.org/2000/svg">
<circle cx="71" cy="70.7107" r="50" transform="rotate(45 71 70.7107)" fill="#FF9C40"/>
<path d="M35.6447 106.066C45.0215 115.443 57.7392 120.711 71 120.711C84.2608 120.711 96.9785 115.443 106.355 106.066C115.732 96.6892 121 83.9715 121 70.7107C121 57.4499 115.732 44.7322 106.355 35.3554L71 70.7107L35.6447 106.066Z" fill="#FF8B20"/>
<path d="M61.7251 88.2867C58.9411 88.2867 56.4611 87.5987 54.2851 86.2227C52.1091 84.8467 50.3971 82.8627 49.1491 80.2707C47.9331 77.6467 47.3251 74.5267 47.3251 70.9107C47.3251 67.2947 47.9331 64.1907 49.1491 61.5987C50.3971 58.9747 52.1091 56.9747 54.2851 55.5987C56.4611 54.2227 58.9411 53.5347 61.7251 53.5347C64.5091 53.5347 66.9891 54.2227 69.1651 55.5987C71.3411 56.9747 73.0371 58.9747 74.2531 61.5987C75.5011 64.1907 76.1251 67.2947 76.1251 70.9107C76.1251 74.5267 75.5011 77.6467 74.2531 80.2707C73.0371 82.8627 71.3411 84.8467 69.1651 86.2227C66.9891 87.5987 64.5091 88.2867 61.7251 88.2867ZM61.7251 81.7107C63.7731 81.7107 65.3731 80.8307 66.5251 79.0707C67.7091 77.3107 68.3011 74.5907 68.3011 70.9107C68.3011 67.2307 67.7091 64.5107 66.5251 62.7507C65.3731 60.9907 63.7731 60.1107 61.7251 60.1107C59.7091 60.1107 58.1091 60.9907 56.9251 62.7507C55.7731 64.5107 55.1971 67.2307 55.1971 70.9107C55.1971 74.5907 55.7731 77.3107 56.9251 79.0707C58.1091 80.8307 59.7091 81.7107 61.7251 81.7107ZM92.582 54.1107V87.7107H84.806V60.3507H78.086V54.1107H92.582Z" fill="white"/>
</svg>
