<svg width="26" height="26" viewBox="0 0 26 26" fill="none" xmlns="http://www.w3.org/2000/svg">
<circle cx="13" cy="13" r="13" fill="#FF7A00"/>
<path d="M18.0262 14.4224C17.6996 14.0995 17.3112 13.9253 16.9084 13.9253C16.5055 13.9253 16.1208 14.0958 15.7941 14.4188L15.707 14.5022C15.3876 14.8179 15.061 15.1409 14.7416 15.471C14.6799 15.4384 14.6218 15.4094 14.5601 15.3803C14.4113 15.3078 14.2734 15.2388 14.1464 15.159C13.1773 14.5494 12.2844 13.7366 11.4206 12.6771C11.0069 12.1691 10.7165 11.7155 10.5133 11.2619C10.7964 10.9898 11.0722 10.7068 11.3444 10.4346L11.5549 10.2242C12.2409 9.53473 12.2373 8.64573 11.5513 7.95268C11.3444 7.74585 11.1339 7.5354 10.9307 7.3322C10.8399 7.24148 10.7492 7.15077 10.6621 7.06368C10.5677 6.96934 10.4697 6.87137 10.3753 6.77703C10.1685 6.5702 9.95796 6.35612 9.74382 6.14566C9.41717 5.82272 9.02881 5.65218 8.62594 5.65218C8.22307 5.65218 7.83835 5.82272 7.5117 6.14566C7.35563 6.29806 7.20319 6.45409 7.05076 6.60649C6.83299 6.82783 6.60796 7.05643 6.37931 7.27051C5.95103 7.67691 5.71149 8.19216 5.6643 8.79813C5.59171 9.74882 5.85666 10.6088 6.09621 11.251C6.637 12.7025 7.46089 14.0777 8.61506 15.4529C10.056 17.1656 11.7908 18.5227 13.7725 19.4879C14.865 20.0176 15.8014 20.2898 16.716 20.3406C16.785 20.3442 16.8503 20.3478 16.9156 20.3478C17.6923 20.3478 18.3311 20.0757 18.8138 19.535C19.0207 19.3064 19.2385 19.0923 19.4744 18.8637C19.5905 18.7476 19.7139 18.6315 19.8337 18.5118C20.5161 17.8224 20.5197 16.9334 19.841 16.2512C19.2349 15.6234 18.6215 15.0102 18.0262 14.4224ZM19.224 17.8877C19.1115 18.0038 18.9917 18.1163 18.8755 18.2288C18.6433 18.4574 18.4001 18.6896 18.1751 18.9436C17.8266 19.3318 17.3875 19.4951 16.7777 19.4625C15.9829 19.4189 15.1517 19.1758 14.1681 18.6968C12.2953 17.7861 10.6584 16.5052 9.29739 14.8869C8.20493 13.5878 7.43185 12.2997 6.92736 10.9426C6.61885 10.1117 6.50271 9.46942 6.54626 8.85982C6.5753 8.46431 6.71685 8.15951 6.99269 7.89825C7.2286 7.67328 7.45726 7.44105 7.68228 7.21608C7.83109 7.06731 7.98353 6.91128 8.13234 6.76614C8.24485 6.65729 8.42269 6.52303 8.63683 6.52303C8.85097 6.52303 9.02881 6.65366 9.14496 6.76614C9.35547 6.97297 9.56597 7.18343 9.76922 7.39025C9.86722 7.48823 9.96159 7.58257 10.0596 7.68054C10.1503 7.77125 10.2411 7.86197 10.3318 7.94905C10.535 8.15225 10.7455 8.35908 10.9488 8.56591C11.2972 8.91788 11.3009 9.25896 10.9524 9.61093L10.7419 9.82502C10.4479 10.1226 10.1431 10.4274 9.83818 10.7213C9.68212 10.8737 9.52605 11.1313 9.68212 11.5014C9.91803 12.0711 10.2628 12.619 10.7601 13.2322C11.6856 14.368 12.6474 15.2424 13.6999 15.9028C13.8633 16.0044 14.0302 16.0879 14.1935 16.1677C14.2879 16.2149 14.3786 16.2584 14.4657 16.3056C14.5783 16.3673 14.6908 16.3963 14.8033 16.3963C14.9848 16.3963 15.1517 16.3201 15.2969 16.1677C15.6381 15.8158 15.9901 15.4674 16.3349 15.1263L16.422 15.0429C16.5345 14.9304 16.7124 14.7998 16.9229 14.7998C17.1334 14.7998 17.3149 14.934 17.4274 15.0429C18.019 15.6307 18.6324 16.2403 19.2457 16.8572C19.5688 17.1946 19.5688 17.543 19.224 17.8877Z" fill="white"/>
</svg>
