<svg width="49" height="49" viewBox="0 0 49 49" fill="none" xmlns="http://www.w3.org/2000/svg">
<path d="M24.5 49C38.031 49 49 38.031 49 24.5C49 10.969 38.031 0 24.5 0C10.969 0 0 10.969 0 24.5C0 38.031 10.969 49 24.5 49Z" fill="#FFC61B"/>
<path d="M48.868 27.0535L36.1114 14.2935L26.6017 30.1482L21.953 25.4175L12.9464 37.4838L24.4621 48.9994C24.4748 48.9994 24.4873 48.9999 24.5 48.9999C37.1686 49 47.5908 39.3844 48.868 27.0535Z" fill="#EAA22F"/>
<path d="M14.5343 38.1111H34.4657C35.7501 38.1111 36.7912 37.0698 36.7912 35.7855V15.9367C36.7912 14.6522 35.75 13.6111 34.4657 13.6111H14.5343C13.2499 13.6111 12.2087 14.6523 12.2087 15.9367V35.7855C12.2087 37.0699 13.25 38.1111 14.5343 38.1111Z" fill="#273B7A"/>
<path d="M34.4657 13.6111H24.4451V38.1111H34.4657C35.7501 38.1111 36.7913 37.0698 36.7913 35.7855V15.9367C36.7913 14.6523 35.75 13.6111 34.4657 13.6111Z" fill="#121149"/>
<path d="M29.1062 21.5017C26.1015 20.6029 22.8985 20.6029 19.8937 21.5017C19.4179 21.6441 18.9142 21.3855 18.7461 20.9182C18.3432 19.7992 17.9403 18.6799 17.5375 17.5608C17.3547 17.0532 17.6368 16.5 18.1522 16.3408C22.2875 15.064 26.7126 15.064 30.848 16.3408C31.3633 16.5001 31.6455 17.0532 31.4627 17.5608C31.0598 18.6799 30.6569 19.7992 30.254 20.9182C30.0857 21.3854 29.5821 21.6441 29.1062 21.5017Z" fill="#71E2EF"/>
<path d="M30.8479 16.3407C28.7625 15.6968 26.6036 15.3785 24.4451 15.3842V20.8286C26.0154 20.8232 27.5861 21.047 29.1062 21.5018C29.5821 21.6442 30.0857 21.3856 30.254 20.9183C30.6569 19.7992 31.0598 18.68 31.4626 17.5609C31.6454 17.0531 31.3634 16.5 30.8479 16.3407Z" fill="#38C6D9"/>
<path d="M22.2178 35.3889H15.8935C15.3847 35.3889 14.9723 34.9765 14.9723 34.4678V25.4213C14.9723 24.9124 15.3848 24.5001 15.8935 24.5001H22.2178C22.7266 24.5001 23.1389 24.9126 23.1389 25.4213V34.4678C23.1389 34.9765 22.7264 35.3889 22.2178 35.3889Z" fill="#386895"/>
<path d="M33.1067 35.3889H26.7825C26.2736 35.3889 25.8613 34.9765 25.8613 34.4678V25.4213C25.8613 24.9124 26.2738 24.5001 26.7825 24.5001H33.1067C33.6156 24.5001 34.0279 24.9126 34.0279 25.4213V34.4678C34.0279 34.9765 33.6154 35.3889 33.1067 35.3889Z" fill="#273B7A"/>
<path d="M21.9695 21.0304L20.0605 17.2125C19.9996 17.0904 19.851 17.0411 19.7284 17.1018C19.6062 17.163 19.5566 17.3114 19.6177 17.4338L21.4605 21.1194C21.6299 21.087 21.7995 21.0576 21.9695 21.0304Z" fill="#121149"/>
</svg>
