<svg width="142" height="142" viewBox="0 0 142 142" fill="none" xmlns="http://www.w3.org/2000/svg">
<circle cx="71" cy="70.7107" r="50" transform="rotate(45 71 70.7107)" fill="#FF9C40"/>
<path d="M35.6447 106.066C45.0215 115.443 57.7392 120.711 71 120.711C84.2608 120.711 96.9785 115.443 106.355 106.066C115.732 96.6892 121 83.9715 121 70.7107C121 57.4499 115.732 44.7322 106.355 35.3554L71 70.7107L35.6447 106.066Z" fill="#FF8B20"/>
<path d="M56.5142 88.2867C53.7302 88.2867 51.2502 87.5987 49.0742 86.2227C46.8982 84.8467 45.1862 82.8627 43.9382 80.2707C42.7222 77.6467 42.1142 74.5267 42.1142 70.9107C42.1142 67.2947 42.7222 64.1907 43.9382 61.5987C45.1862 58.9747 46.8982 56.9747 49.0742 55.5987C51.2502 54.2227 53.7302 53.5347 56.5142 53.5347C59.2982 53.5347 61.7782 54.2227 63.9542 55.5987C66.1302 56.9747 67.8262 58.9747 69.0422 61.5987C70.2902 64.1907 70.9142 67.2947 70.9142 70.9107C70.9142 74.5267 70.2902 77.6467 69.0422 80.2707C67.8262 82.8627 66.1302 84.8467 63.9542 86.2227C61.7782 87.5987 59.2982 88.2867 56.5142 88.2867ZM56.5142 81.7107C58.5622 81.7107 60.1622 80.8307 61.3142 79.0707C62.4982 77.3107 63.0902 74.5907 63.0902 70.9107C63.0902 67.2307 62.4982 64.5107 61.3142 62.7507C60.1622 60.9907 58.5622 60.1107 56.5142 60.1107C54.4982 60.1107 52.8982 60.9907 51.7142 62.7507C50.5622 64.5107 49.9862 67.2307 49.9862 70.9107C49.9862 74.5907 50.5622 77.3107 51.7142 79.0707C52.8982 80.8307 54.4982 81.7107 56.5142 81.7107ZM89.9196 67.7907C92.8636 68.2707 95.1196 69.3747 96.6876 71.1027C98.2556 72.7987 99.0396 74.9107 99.0396 77.4387C99.0396 79.3907 98.5276 81.1987 97.5036 82.8627C96.4796 84.4947 94.9116 85.8067 92.7996 86.7987C90.7196 87.7907 88.1596 88.2867 85.1196 88.2867C82.7516 88.2867 80.4156 87.9827 78.1116 87.3747C75.8396 86.7347 73.9036 85.8387 72.3036 84.6867L75.3276 78.7347C76.6076 79.6947 78.0796 80.4467 79.7436 80.9907C81.4396 81.5027 83.1676 81.7587 84.9276 81.7587C86.8796 81.7587 88.4156 81.3907 89.5356 80.6547C90.6556 79.8867 91.2156 78.8147 91.2156 77.4387C91.2156 74.6867 89.1196 73.3107 84.9276 73.3107H81.3756V68.1747L88.2876 60.3507H73.9836V54.1107H97.5036V59.1507L89.9196 67.7907Z" fill="white"/>
</svg>
