<svg width="49" height="49" viewBox="0 0 49 49" fill="none" xmlns="http://www.w3.org/2000/svg">
<path d="M24.5 49C38.031 49 49 38.031 49 24.5C49 10.969 38.031 0 24.5 0C10.969 0 0 10.969 0 24.5C0 38.031 10.969 49 24.5 49Z" fill="#F2CF61"/>
<path d="M48.7129 28.2592L41.235 9.64075C40.9384 8.71473 40.0678 8.03906 39.0469 8.03906H37.5156H9.95312C8.68984 8.03906 7.65625 9.07266 7.65625 10.3359V10.5319V10.7279V27.5625V27.9453L8.31239 29.0938L7.65625 35.9844C7.62945 36.2497 7.58734 36.791 7.74008 37.2817L10.6923 44.7385C14.6242 47.4263 19.3776 49 24.5 49C36.7523 49 46.9033 40.0054 48.7129 28.2592Z" fill="#D9B957"/>
<path d="M7.65625 27.5625V10.3359C7.65625 9.07266 8.68984 8.03906 9.95312 8.03906H39.0469C40.3102 8.03906 41.3438 9.07266 41.3438 10.3359V27.5625H7.65625Z" fill="#263740"/>
<path d="M39.0469 8.03906H37.5156C38.7789 8.03906 39.8125 9.07266 39.8125 10.3359V27.5625H41.3438V10.3359C41.3438 9.07266 40.3102 8.03906 39.0469 8.03906Z" fill="#1E2C33"/>
<path d="M41.3438 35.9844L40.5781 27.9453L38.6641 27.1797L37.5156 16.0781C37.2458 13.8429 35.8722 12.6328 33.6875 12.6328H24.5H15.3125C13.1278 12.6328 11.7543 13.8429 11.4844 16.0781L10.3359 27.1797L8.42189 27.9453L7.65626 35.9844C7.60037 36.536 7.46983 38.2812 9.18751 38.2812H24.5H39.8125C41.5298 38.2812 41.3997 36.536 41.3438 35.9844Z" fill="#406A80"/>
<path d="M41.3437 35.9844L40.5781 27.9453L38.6641 27.1797L37.5156 16.0781C37.2457 13.8429 35.8722 12.6328 33.6875 12.6328H31.3906C33.5753 12.6328 34.9489 13.8429 35.2187 16.0781L36.3672 27.1797L38.2812 27.9453L39.0469 35.9844C39.1028 36.536 39.2329 38.2812 37.5156 38.2812H39.8125C41.5298 38.2812 41.3996 36.536 41.3437 35.9844Z" fill="#395F73"/>
<path d="M29.4766 27.1797H19.5234V35.9844H29.4766V27.1797Z" fill="#263740"/>
<path d="M29.4766 36.3672H19.5234C19.3121 36.3672 19.1406 36.1961 19.1406 35.9844V27.1797C19.1406 26.968 19.3121 26.7969 19.5234 26.7969H29.4766C29.6883 26.7969 29.8594 26.968 29.8594 27.1797V35.9844C29.8594 36.1961 29.6883 36.3672 29.4766 36.3672ZM19.9062 35.6016H29.0938V27.5625H19.9062V35.6016Z" fill="#242424"/>
<path d="M29.4766 29.8594H19.5234V30.625H29.4766V29.8594Z" fill="#242424"/>
<path d="M29.4766 32.9219H19.5234V33.6875H29.4766V32.9219Z" fill="#242424"/>
<path d="M10.3359 38.2812V40.5781C10.3359 41.6186 11.4155 41.7266 12.6328 41.7266C13.8502 41.7266 14.9297 41.6806 14.9297 40.5781V38.2812H10.3359Z" fill="#661D15"/>
<path d="M34.0703 38.2812V40.5781C34.0703 41.6186 35.1498 41.7266 36.3672 41.7266C37.5845 41.7266 38.6641 41.6806 38.6641 40.5781V38.2812H34.0703Z" fill="#661D15"/>
<path d="M37.0057 26.0312L35.9947 16.2615C35.8197 14.811 35.1085 14.1641 33.6875 14.1641H15.3125C13.8915 14.1641 13.1798 14.811 13.0076 16.2358L11.9943 26.0312H37.0057Z" fill="#C2E2F2"/>
<path d="M37.1328 31.3895C37.1328 32.66 36.1069 33.6875 34.8359 33.6875C33.565 33.6875 32.5391 32.66 32.5391 31.3895C32.5391 30.1254 33.565 29.0938 34.8359 29.0938C36.1069 29.0938 37.1328 30.1254 37.1328 31.3895Z" fill="#FFD464"/>
<path d="M34.8359 34.0703C33.3587 34.0703 32.1562 32.8675 32.1562 31.3895C32.1562 29.9126 33.3587 28.7109 34.8359 28.7109C36.3132 28.7109 37.5156 29.9126 37.5156 31.3895C37.5156 32.8675 36.3132 34.0703 34.8359 34.0703ZM34.8359 29.4766C33.7805 29.4766 32.9219 30.3344 32.9219 31.3895C32.9219 32.4457 33.7805 33.3047 34.8359 33.3047C35.8914 33.3047 36.75 32.4457 36.75 31.3895C36.75 30.3344 35.8914 29.4766 34.8359 29.4766Z" fill="#242424"/>
<path d="M16.4609 31.3895C16.4609 32.66 15.435 33.6875 14.1644 33.6875C12.8931 33.6875 11.8672 32.66 11.8672 31.3895C11.8672 30.1254 12.8931 29.0938 14.1644 29.0938C15.435 29.0938 16.4609 30.1254 16.4609 31.3895Z" fill="#FFD464"/>
<path d="M14.1644 34.0703C12.6868 34.0703 11.4844 32.8675 11.4844 31.3895C11.4844 29.9126 12.6868 28.7109 14.1644 28.7109C15.6417 28.7109 16.8438 29.9126 16.8438 31.3895C16.8438 32.8675 15.6417 34.0703 14.1644 34.0703ZM14.1644 29.4766C13.109 29.4766 12.25 30.3344 12.25 31.3895C12.25 32.4457 13.109 33.3047 14.1644 33.3047C15.2195 33.3047 16.0781 32.4457 16.0781 31.3895C16.0781 30.3344 15.2195 29.4766 14.1644 29.4766Z" fill="#242424"/>
<path d="M16.0781 17.2265C15.9801 17.2265 15.8821 17.189 15.8075 17.1144C15.6578 16.9647 15.6578 16.7228 15.8075 16.5731L16.9559 15.4246C17.1056 15.275 17.3475 15.275 17.4972 15.4246C17.6469 15.5743 17.6469 15.8163 17.4972 15.9659L16.3487 17.1144C16.2741 17.189 16.1761 17.2265 16.0781 17.2265Z" fill="#F5F5F5"/>
<path d="M16.4609 19.5234C16.3629 19.5234 16.2649 19.4859 16.1903 19.4112C16.0406 19.2616 16.0406 19.0196 16.1903 18.87L19.2528 15.8075C19.4024 15.6578 19.6444 15.6578 19.7941 15.8075C19.9437 15.9571 19.9437 16.1991 19.7941 16.3487L16.7316 19.4112C16.6569 19.4859 16.5589 19.5234 16.4609 19.5234Z" fill="#F5F5F5"/>
<path d="M23.7344 22.5898L18.375 23.3554C18.166 23.3853 18.0205 23.5793 18.0504 23.7887C18.0776 23.9798 18.2414 24.1172 18.4286 24.1172C18.4466 24.1172 18.465 24.1161 18.4834 24.1134L19.8377 23.9197L16.407 26.0313H17.8674L21.6921 23.6777C21.7036 23.6705 21.7101 23.659 21.7208 23.6513L23.8427 23.3481C24.0517 23.3183 24.1972 23.1242 24.1674 22.9148C24.1375 22.7054 23.9457 22.5618 23.7344 22.5898Z" fill="#263740"/>
<path d="M32.1563 22.5898L26.7969 23.3554C26.5879 23.3853 26.4424 23.5793 26.4723 23.7887C26.4995 23.9798 26.6629 24.1172 26.8509 24.1172C26.8689 24.1172 26.8869 24.1161 26.906 24.1134L28.2596 23.9197L24.8289 26.0313H26.2885L30.1132 23.6777C30.1243 23.6705 30.1312 23.659 30.1415 23.6513L32.2638 23.3481C32.4729 23.3183 32.6183 23.1242 32.5885 22.9148C32.5594 22.7054 32.3676 22.5618 32.1563 22.5898Z" fill="#263740"/>
</svg>
