<svg width="142" height="142" viewBox="0 0 142 142" fill="none" xmlns="http://www.w3.org/2000/svg">
<circle cx="71" cy="70.7107" r="50" transform="rotate(45 71 70.7107)" fill="#FF9C40"/>
<path d="M35.6447 106.066C45.0215 115.443 57.7392 120.711 71 120.711C84.2608 120.711 96.9785 115.443 106.355 106.066C115.732 96.6892 121 83.9715 121 70.7107C121 57.4499 115.732 44.7322 106.355 35.3554L71 70.7107L35.6447 106.066Z" fill="#FF8B20"/>
<path d="M56.4673 88.2867C53.6833 88.2867 51.2033 87.5987 49.0273 86.2227C46.8513 84.8467 45.1393 82.8627 43.8913 80.2707C42.6753 77.6467 42.0673 74.5267 42.0673 70.9107C42.0673 67.2947 42.6753 64.1907 43.8913 61.5987C45.1393 58.9747 46.8513 56.9747 49.0273 55.5987C51.2033 54.2227 53.6833 53.5347 56.4673 53.5347C59.2513 53.5347 61.7313 54.2227 63.9073 55.5987C66.0833 56.9747 67.7793 58.9747 68.9953 61.5987C70.2433 64.1907 70.8673 67.2947 70.8673 70.9107C70.8673 74.5267 70.2433 77.6467 68.9953 80.2707C67.7793 82.8627 66.0833 84.8467 63.9073 86.2227C61.7313 87.5987 59.2513 88.2867 56.4673 88.2867ZM56.4673 81.7107C58.5153 81.7107 60.1153 80.8307 61.2673 79.0707C62.4513 77.3107 63.0433 74.5907 63.0433 70.9107C63.0433 67.2307 62.4513 64.5107 61.2673 62.7507C60.1153 60.9907 58.5153 60.1107 56.4673 60.1107C54.4513 60.1107 52.8513 60.9907 51.6673 62.7507C50.5153 64.5107 49.9393 67.2307 49.9393 70.9107C49.9393 74.5907 50.5153 77.3107 51.6673 79.0707C52.8513 80.8307 54.4513 81.7107 56.4673 81.7107ZM99.4682 81.3747V87.7107H74.0762V82.6707L87.0362 70.4307C88.4122 69.1187 89.3402 67.9987 89.8202 67.0707C90.3002 66.1107 90.5402 65.1667 90.5402 64.2387C90.5402 62.8947 90.0762 61.8707 89.1482 61.1667C88.2522 60.4307 86.9242 60.0627 85.1642 60.0627C83.6922 60.0627 82.3642 60.3507 81.1802 60.9267C79.9962 61.4707 79.0042 62.3027 78.2042 63.4227L72.5402 59.7747C73.8522 57.8227 75.6602 56.3027 77.9642 55.2147C80.2682 54.0947 82.9082 53.5347 85.8842 53.5347C88.3802 53.5347 90.5562 53.9507 92.4122 54.7827C94.3002 55.5827 95.7562 56.7347 96.7802 58.2387C97.8362 59.7107 98.3642 61.4547 98.3642 63.4707C98.3642 65.2947 97.9802 67.0067 97.2122 68.6067C96.4442 70.2067 94.9562 72.0307 92.7482 74.0787L85.0202 81.3747H99.4682Z" fill="white"/>
</svg>
