<svg width="20" height="20" viewBox="0 0 20 20" fill="none" xmlns="http://www.w3.org/2000/svg">
<ellipse cx="9.58333" cy="9.585" rx="9.58333" ry="9.585" fill="#E7E7E7"/>
<path d="M12.1017 9.10833C12.1102 8.10916 11.2594 7.19319 10.205 7.06653C10.184 7.06404 10.1612 7.06026 10.137 7.05625C10.0848 7.0476 10.0308 7.03871 9.97638 7.03871C9.76029 7.03871 9.70253 7.19053 9.68732 7.28107C9.67254 7.36911 9.68664 7.44304 9.72918 7.5009C9.80074 7.59822 9.92665 7.6155 10.0278 7.62935C10.0574 7.63344 10.0854 7.63725 10.1088 7.64251C11.0561 7.85421 11.3751 8.18705 11.5309 9.12644C11.5347 9.1494 11.5365 9.17768 11.5383 9.20768C11.5451 9.31997 11.5593 9.55359 11.8104 9.55359H11.8104C11.8313 9.55359 11.8538 9.55179 11.8772 9.54822C12.111 9.51268 12.1037 9.29913 12.1002 9.19652C12.0992 9.16762 12.0982 9.14029 12.1007 9.12211C12.1013 9.11753 12.1017 9.11293 12.1017 9.10833Z" fill="#242D39"/>
<path d="M9.9154 6.69977C9.94345 6.70179 9.97001 6.70373 9.99213 6.70712C11.5477 6.94638 12.263 7.6835 12.4613 9.25147C12.4646 9.27812 12.4652 9.31063 12.4657 9.34505C12.4677 9.46756 12.4718 9.7224 12.7454 9.72768L12.7539 9.72777C12.8397 9.72777 12.908 9.70188 12.9568 9.65078C13.042 9.56167 13.036 9.42928 13.0312 9.32289C13.0301 9.29679 13.029 9.2722 13.0292 9.25068C13.049 7.64706 11.6612 6.1929 10.0592 6.13882C10.0526 6.1386 10.0463 6.13896 10.0399 6.13986C10.0367 6.14032 10.0309 6.14089 10.0209 6.14089C10.0049 6.14089 9.98526 6.13951 9.96443 6.1381C9.93923 6.13638 9.91067 6.1344 9.88171 6.1344C9.6266 6.1344 9.5781 6.31575 9.5719 6.42386C9.55759 6.67371 9.79925 6.69129 9.9154 6.69977Z" fill="#242D39"/>
<path d="M12.3864 11.278C12.3533 11.2527 12.3191 11.2266 12.2871 11.2008C12.1172 11.0641 11.9366 10.9381 11.7618 10.8162C11.7256 10.7909 11.6893 10.7656 11.6532 10.7403C11.4293 10.583 11.2281 10.5066 11.038 10.5066C10.7819 10.5066 10.5586 10.6481 10.3743 10.9272C10.2927 11.0509 10.1937 11.1111 10.0716 11.1111C9.99942 11.1111 9.91741 11.0905 9.82787 11.0498C9.10537 10.7221 8.58946 10.2197 8.29444 9.55649C8.15182 9.23595 8.19806 9.02643 8.44905 8.8559C8.59157 8.75915 8.85687 8.57903 8.83808 8.2341C8.8168 7.84241 7.9527 6.66385 7.58862 6.52999C7.43447 6.47329 7.27252 6.47277 7.10638 6.52867C6.68784 6.6694 6.38749 6.91653 6.23772 7.24332C6.09299 7.55909 6.09953 7.92985 6.25662 8.31554C6.71077 9.43065 7.34927 10.4029 8.15446 11.2052C8.9426 11.9905 9.91129 12.6339 11.0336 13.1172C11.1348 13.1607 11.2409 13.1845 11.3183 13.2018C11.3448 13.2077 11.3676 13.2128 11.3842 13.2174C11.3933 13.2199 11.4027 13.2212 11.4122 13.2213L11.421 13.2213C11.421 13.2213 11.421 13.2213 11.4211 13.2213C11.9489 13.2213 12.5827 12.7389 12.7774 12.1889C12.9479 11.7073 12.6366 11.4692 12.3864 11.278Z" fill="#242D39"/>
<path d="M10.1483 7.97355C10.058 7.97584 9.86988 7.98051 9.80389 8.1721C9.77302 8.26163 9.77671 8.33937 9.81489 8.40315C9.87092 8.49673 9.97826 8.52541 10.0759 8.54114C10.43 8.59797 10.6118 8.79381 10.6482 9.1574C10.6651 9.32693 10.7792 9.44532 10.9258 9.44532H10.9258C10.9367 9.44532 10.9477 9.44468 10.9587 9.44334C11.135 9.42236 11.2205 9.29284 11.2127 9.0584C11.2155 8.81373 11.0875 8.53595 10.8698 8.31469C10.6513 8.09276 10.3879 7.96777 10.1483 7.97355Z" fill="#242D39"/>
<rect x="4.43398" y="4.434" width="10.3" height="10.302" rx="2.4" stroke="#242D39" stroke-width="1.2"/>
</svg>
