<svg width="30" height="30" viewBox="0 0 30 30" fill="none" xmlns="http://www.w3.org/2000/svg">
<circle cx="15" cy="15" r="15" fill="white"/>
<path d="M18.9418 14.254C18.9552 12.6904 17.6234 11.257 15.9731 11.0587C15.9403 11.0548 15.9046 11.0489 15.8667 11.0426C15.785 11.0291 15.7005 11.0152 15.6153 11.0152C15.277 11.0152 15.1866 11.2528 15.1628 11.3945C15.1397 11.5323 15.1618 11.6479 15.2283 11.7385C15.3403 11.8908 15.5374 11.9178 15.6957 11.9395C15.7421 11.9459 15.7859 11.9519 15.8225 11.9601C17.3052 12.2914 17.8045 12.8123 18.0485 14.2824C18.0544 14.3183 18.0571 14.3626 18.06 14.4095C18.0706 14.5852 18.0928 14.9509 18.4859 14.9509H18.4859C18.5186 14.9509 18.5538 14.948 18.5904 14.9424C18.9564 14.8868 18.945 14.5526 18.9395 14.392C18.9379 14.3468 18.9364 14.304 18.9402 14.2756C18.9413 14.2684 18.9418 14.2612 18.9418 14.254Z" fill="#242D39"/>
<path d="M15.5194 10.4848C15.5634 10.4879 15.6049 10.491 15.6395 10.4963C18.0743 10.8707 19.194 12.0243 19.5043 14.478C19.5095 14.5198 19.5104 14.5706 19.5112 14.6245C19.5143 14.8162 19.5207 15.215 19.949 15.2233L19.9623 15.2234C20.0966 15.2234 20.2035 15.1829 20.2799 15.1029C20.4132 14.9635 20.4039 14.7563 20.3964 14.5898C20.3946 14.549 20.3928 14.5105 20.3933 14.4768C20.4242 11.9672 18.2519 9.69155 15.7446 9.60692C15.7342 9.60658 15.7243 9.60713 15.7142 9.60854C15.7093 9.60926 15.7002 9.61016 15.6846 9.61016C15.6596 9.61016 15.6288 9.60799 15.5962 9.60578C15.5567 9.6031 15.512 9.6 15.4667 9.6C15.0674 9.6 14.9915 9.88381 14.9818 10.053C14.9594 10.444 15.3377 10.4715 15.5194 10.4848Z" fill="#242D39"/>
<path d="M19.3866 17.6494C19.3349 17.6099 19.2813 17.569 19.2312 17.5286C18.9654 17.3147 18.6826 17.1175 18.4091 16.9268C18.3523 16.8872 18.2955 16.8476 18.239 16.808C17.8886 16.5619 17.5737 16.4423 17.2761 16.4423C16.8753 16.4423 16.5258 16.6638 16.2374 17.1005C16.1096 17.2941 15.9546 17.3882 15.7635 17.3882C15.6505 17.3882 15.5222 17.356 15.382 17.2923C14.2512 16.7795 13.4436 15.9933 12.9819 14.9554C12.7586 14.4538 12.831 14.1259 13.2239 13.859C13.4469 13.7076 13.8622 13.4257 13.8328 12.8859C13.7995 12.2729 12.447 10.4286 11.8771 10.2191C11.6358 10.1304 11.3823 10.1295 11.1223 10.217C10.4672 10.4372 9.99707 10.824 9.76265 11.3354C9.53612 11.8296 9.54635 12.4098 9.79224 13.0134C10.5031 14.7584 11.5025 16.2799 12.7628 17.5355C13.9964 18.7645 15.5126 19.7713 17.2692 20.5277C17.4276 20.5958 17.5937 20.633 17.7149 20.6601C17.7563 20.6694 17.792 20.6773 17.818 20.6845C17.8322 20.6883 17.847 20.6904 17.8618 20.6906L17.8756 20.6907C17.8757 20.6907 17.8756 20.6907 17.8757 20.6907C18.7019 20.6907 19.694 19.9357 19.9987 19.0749C20.2656 18.3213 19.7782 17.9487 19.3866 17.6494Z" fill="#242D39"/>
<path d="M15.8846 12.4782C15.7432 12.4818 15.4488 12.4891 15.3455 12.7889C15.2972 12.929 15.303 13.0507 15.3627 13.1505C15.4504 13.2969 15.6184 13.3418 15.7712 13.3664C16.3255 13.4554 16.6101 13.7618 16.667 14.3308C16.6935 14.5961 16.8721 14.7814 17.1015 14.7814H17.1016C17.1185 14.7814 17.1358 14.7804 17.1531 14.7783C17.429 14.7455 17.5627 14.5428 17.5506 14.1759C17.555 13.793 17.3546 13.3583 17.0138 13.012C16.6719 12.6647 16.2596 12.4691 15.8846 12.4782Z" fill="#242D39"/>
<rect x="6.85" y="6.85" width="16.3" height="16.3" rx="5.15" stroke="#242D39" stroke-width="1.7"/>
</svg>
