<svg width="20" height="20" viewBox="0 0 20 20" fill="none" xmlns="http://www.w3.org/2000/svg">
<ellipse cx="9.86198" cy="9.585" rx="7.66667" ry="7.668" fill="#242D39"/>
<path d="M9.86165 0C4.56886 0 0.27832 4.29128 0.27832 9.585C0.27832 14.8787 4.56886 19.17 9.86165 19.17C15.1544 19.17 19.445 14.8787 19.445 9.585C19.445 4.29128 15.1544 0 9.86165 0ZM13.5472 10.8141C13.5472 10.8141 14.3948 11.6508 14.6034 12.0392C14.6094 12.0471 14.6124 12.0551 14.6144 12.0591C14.6992 12.2019 14.7192 12.3127 14.6773 12.3956C14.6074 12.5334 14.3678 12.6013 14.286 12.6073H12.7886C12.6847 12.6073 12.4671 12.5803 12.2036 12.3986C12.0009 12.2568 11.8013 12.0242 11.6066 11.7975C11.3161 11.4601 11.0646 11.1685 10.811 11.1685C10.7788 11.1685 10.7468 11.1735 10.7162 11.1835C10.5245 11.2454 10.2789 11.519 10.2789 12.2478C10.2789 12.4755 10.0992 12.6063 9.97246 12.6063H9.28665C9.05306 12.6063 7.83618 12.5244 6.75805 11.3872C5.43835 9.99436 4.25041 7.20073 4.24043 7.17477C4.16556 6.99405 4.32029 6.89721 4.489 6.89721H6.00137C6.20302 6.89721 6.2689 7.02001 6.31482 7.12884C6.36873 7.25564 6.56638 7.75986 6.89082 8.32697C7.4169 9.25152 7.73934 9.62693 7.99789 9.62693C8.04637 9.62636 8.09399 9.61403 8.13665 9.59099C8.47407 9.40328 8.41118 8.20017 8.3962 7.95056C8.3962 7.90363 8.3952 7.4124 8.2225 7.17677C8.09872 7.00604 7.88809 6.94114 7.76031 6.91717C7.81203 6.8458 7.88016 6.78792 7.95896 6.74844C8.19056 6.63262 8.60783 6.61565 9.02211 6.61565H9.25271C9.70193 6.62164 9.81773 6.65059 9.98045 6.69153C10.3099 6.7704 10.3169 6.98307 10.2879 7.71093C10.2789 7.91761 10.2699 8.15124 10.2699 8.42681C10.2699 8.48672 10.2669 8.55062 10.2669 8.61851C10.257 8.98893 10.245 9.40928 10.5065 9.582C10.5406 9.6034 10.5801 9.61481 10.6203 9.61495C10.7112 9.61495 10.9847 9.61495 11.7254 8.34394C11.9539 7.93484 12.1524 7.50972 12.3194 7.07193C12.3344 7.04597 12.3783 6.9661 12.4302 6.93515C12.4685 6.91561 12.511 6.90568 12.554 6.90619H14.3319C14.5255 6.90619 14.6583 6.93515 14.6833 7.01003C14.7272 7.12884 14.6753 7.49128 13.8637 8.59056L13.5013 9.06881C12.7656 10.0333 12.7656 10.0822 13.5472 10.8141Z" fill="#E7E7E7"/>
</svg>
