<svg width="49" height="49" viewBox="0 0 49 49" fill="none" xmlns="http://www.w3.org/2000/svg">
<path d="M24.5 49C38.031 49 49 38.031 49 24.5C49 10.969 38.031 0 24.5 0C10.969 0 0 10.969 0 24.5C0 38.031 10.969 49 24.5 49Z" fill="#31BAFD"/>
<path d="M48.7479 28.015L34.839 14.1061L22.3552 26.9199L14.1426 34.8986L27.9668 48.7547C38.707 47.2332 47.2057 38.7485 48.7479 28.015Z" fill="#2B9ED8"/>
<path d="M24.5 38.1111C32.0172 38.1111 38.1111 32.0172 38.1111 24.5C38.1111 16.9828 32.0172 10.8889 24.5 10.8889C16.9828 10.8889 10.8889 16.9828 10.8889 24.5C10.8889 32.0172 16.9828 38.1111 24.5 38.1111Z" fill="#E6F3FF"/>
<path d="M24.5 10.8889C24.4815 10.8889 24.4635 10.8903 24.4451 10.8903V38.1097C24.4635 38.1097 24.4815 38.111 24.5 38.111C32.0171 38.111 38.1111 32.017 38.1111 24.4999C38.1111 16.9828 32.0171 10.8889 24.5 10.8889Z" fill="#CFDBE6"/>
<path d="M24.5 39.1835C16.4034 39.1835 9.81647 32.5966 9.81647 24.5C9.81647 16.4034 16.4034 9.81647 24.5 9.81647C32.5966 9.81647 39.1835 16.4034 39.1835 24.5C39.1835 32.5966 32.5966 39.1835 24.5 39.1835ZM24.5 11.9613C17.586 11.9613 11.9613 17.586 11.9613 24.5C11.9613 31.414 17.586 37.0387 24.5 37.0387C31.414 37.0387 37.0387 31.414 37.0387 24.5C37.0387 17.586 31.414 11.9613 24.5 11.9613Z" fill="#324A5E"/>
<path d="M24.5 9.81647C24.4817 9.81647 24.4633 9.81714 24.4451 9.81714V11.9626C24.4635 11.9626 24.4815 11.9613 24.5 11.9613C31.414 11.9613 37.0387 17.586 37.0387 24.5C37.0387 31.414 31.414 37.0387 24.5 37.0387C24.4815 37.0387 24.4635 37.0374 24.4451 37.0374V39.1829C24.4633 39.1829 24.4817 39.1835 24.5 39.1835C32.5966 39.1835 39.1835 32.5966 39.1835 24.5C39.1835 16.4034 32.5966 9.81647 24.5 9.81647Z" fill="#2B3B4E"/>
<path d="M32.8432 38.4642C35.9476 38.4642 38.4642 35.9476 38.4642 32.8432C38.4642 29.7389 35.9476 27.2223 32.8432 27.2223C29.7389 27.2223 27.2223 29.7389 27.2223 32.8432C27.2223 35.9476 29.7389 38.4642 32.8432 38.4642Z" fill="#FFD15D"/>
<path d="M32.8438 27.2222C32.8304 27.2222 32.8174 27.223 32.8042 27.2231V38.4642C32.8174 38.4642 32.8306 38.4652 32.8438 38.4652C35.9484 38.4652 38.4654 35.9484 38.4654 32.8436C38.4654 29.7391 35.9484 27.2222 32.8438 27.2222Z" fill="#F9B54C"/>
<path d="M32.8439 39.6202C29.1073 39.6202 26.0673 36.5802 26.0673 32.8437C26.0673 29.1071 29.1073 26.0673 32.8439 26.0673C36.5804 26.0673 39.6204 29.1073 39.6204 32.8439C39.6204 36.5804 36.5804 39.6202 32.8439 39.6202ZM32.8439 28.3771C30.3809 28.3771 28.3771 30.3809 28.3771 32.8439C28.3771 35.3069 30.3809 37.3106 32.8439 37.3106C35.3069 37.3106 37.3106 35.3069 37.3106 32.8439C37.3106 30.3809 35.3067 28.3771 32.8439 28.3771Z" fill="#F9B54C"/>
<path d="M32.8439 26.0673C32.8305 26.0673 32.8175 26.0683 32.8043 26.0683V28.3781C32.8175 28.3779 32.8305 28.3771 32.8439 28.3771C35.3069 28.3771 37.3106 30.3809 37.3106 32.8439C37.3106 35.3069 35.3069 37.3106 32.8439 37.3106C32.8305 37.3106 32.8175 37.3098 32.8043 37.3097V39.6195C32.8175 39.6195 32.8305 39.6204 32.8439 39.6204C36.5804 39.6204 39.6204 36.5804 39.6204 32.8439C39.6204 29.1073 36.5804 26.0673 32.8439 26.0673Z" fill="#F4A200"/>
<path d="M33.9982 30.1209H31.6884V35.5654H33.9982V30.1209Z" fill="#F9B54C"/>
<path d="M33.9981 30.1209H32.8036V35.5654H33.9981V30.1209Z" fill="#F4A200"/>
<path d="M25.5724 25.5724H20.0455V23.4277H23.4276V16.3334H25.5724V25.5724Z" fill="#324A5E"/>
<path d="M25.5728 16.3334H24.4456V25.5725H25.5728V16.3334Z" fill="#2B3B4E"/>
</svg>
