<svg width="20" height="20" viewBox="0 0 20 20" fill="none" xmlns="http://www.w3.org/2000/svg">
<ellipse cx="10.139" cy="9.585" rx="9.58333" ry="9.585" fill="#E7E7E7"/>
<path fill-rule="evenodd" clip-rule="evenodd" d="M14.307 5.41255C13.805 4.91015 13.2085 4.51204 12.552 4.24113C11.8955 3.97022 11.1919 3.83186 10.4817 3.83402C7.50116 3.83402 5.07487 6.24861 5.07366 9.21702C5.07234 10.1622 5.32145 11.0909 5.79563 11.9085L5.02832 14.697L7.89512 13.9485C8.68866 14.3784 9.57697 14.6035 10.4795 14.6032H10.4817C13.4619 14.6032 15.888 12.1883 15.8894 9.22017C15.8912 8.51227 15.7522 7.81108 15.4806 7.1574C15.2089 6.50372 14.81 5.9106 14.307 5.41255ZM10.4817 13.6946H10.4797C9.67517 13.6948 8.88525 13.4795 8.1921 13.0709L8.02797 12.974L6.3268 13.4182L6.78088 11.7671L6.67397 11.5974C6.2241 10.8851 5.98576 10.0596 5.98667 9.21702C5.98667 6.7503 8.00397 4.74331 10.4834 4.74331C11.6727 4.74119 12.8143 5.21167 13.6569 6.05126C14.4994 6.89086 14.9741 8.03082 14.9764 9.22041C14.9754 11.6874 12.9591 13.6946 10.4817 13.6946ZM12.947 10.3438C12.8119 10.2764 12.1469 9.95099 12.0238 9.90614C11.9006 9.86128 11.8097 9.83873 11.7198 9.97355C11.6298 10.1084 11.3707 10.41 11.2919 10.5009C11.2131 10.5919 11.1343 10.6018 10.9993 10.5344C10.8642 10.467 10.4286 10.3251 9.91242 9.86685C9.5107 9.51017 9.23966 9.06983 9.16087 8.93526C9.08208 8.80068 9.15238 8.7277 9.22002 8.66077C9.28087 8.6004 9.35506 8.50365 9.4227 8.42509C9.49034 8.34652 9.51289 8.29027 9.55774 8.20055C9.60259 8.11084 9.58028 8.03227 9.54658 7.96511C9.51289 7.89794 9.24257 7.23574 9.13008 6.96634C9.02026 6.70398 8.90898 6.73963 8.82607 6.73551C8.74728 6.73163 8.65636 6.73066 8.5669 6.73066C8.49852 6.73244 8.43123 6.7483 8.36924 6.77725C8.30726 6.80621 8.25191 6.84763 8.20664 6.89894C8.08276 7.03375 7.73365 7.35964 7.73365 8.02112C7.73365 8.6826 8.21852 9.32274 8.28544 9.41245C8.35235 9.50217 9.23821 10.8608 10.5937 11.4434C10.8454 11.5512 11.1025 11.6458 11.3641 11.7267C11.6878 11.829 11.9823 11.8147 12.2151 11.78C12.4747 11.7414 13.0151 11.4546 13.1273 11.1403C13.2396 10.8261 13.2398 10.5569 13.2061 10.5009C13.1724 10.4449 13.0823 10.411 12.947 10.3438Z" fill="#242D39"/>
</svg>
